<svg width="72" height="72" viewBox="0 0 72 72" fill="none" xmlns="http://www.w3.org/2000/svg">
<mask id="mask0_6493_2958" style="mask-type:alpha" maskUnits="userSpaceOnUse" x="0" y="0" width="72" height="72">
<rect width="72" height="72" rx="4" transform="matrix(0 -1 -1 0 72 72)" fill="#D9D9D9"/>
</mask>
<g mask="url(#mask0_6493_2958)">
<mask id="mask1_6493_2958" style="mask-type:alpha" maskUnits="userSpaceOnUse" x="-1" y="0" width="73" height="73">
<rect width="72" height="72" transform="matrix(0 -1 -1 0 71.9505 72.1305)" fill="#D9D9D9"/>
</mask>
<g mask="url(#mask1_6493_2958)">
<path d="M71.9505 72.1305V0.13049H-0.0495024V72.1305H71.9505Z" fill="#F6F6F6"/>
<path d="M71.9505 0.130493L-0.0494995 72.1305H71.9505V0.130493Z" fill="#FF4B4B"/>
<path d="M-0.0494995 72.1305L71.9505 0.130493L-0.0494995 0.130493L-0.0494995 72.1305Z" fill="#2A4159"/>
</g>
<mask id="mask2_6493_2958" style="mask-type:alpha" maskUnits="userSpaceOnUse" x="0" y="1" width="72" height="71">
<path d="M0.995522 35.8653C0.805693 37.3465 1.00614 38.7567 1.59687 40.0958C2.1876 41.4349 3.06121 42.4595 4.21769 43.1696C4.32737 42.3138 4.80086 41.3907 5.63817 40.4003C6.47548 39.4098 7.58225 38.8178 8.9585 38.6243C10.7229 38.3762 12.2965 37.5893 13.6792 36.2636C15.062 34.9379 15.8588 33.4522 16.0697 31.8064C16.2806 30.1606 15.8424 28.8486 14.7549 27.8702C13.6675 26.8918 12.2415 26.5267 10.4771 26.7748C8.14811 27.1022 6.05518 28.1561 4.19837 29.9363C2.34155 31.7166 1.27394 33.6929 0.995522 35.8653ZM5.23012 35.2699C5.36932 34.1837 5.90313 33.1955 6.83154 32.3054C7.75995 31.4153 8.80641 30.8884 9.97092 30.7246C10.5708 30.6403 11.0494 30.7588 11.4067 31.0803C11.764 31.4018 11.9068 31.8423 11.8351 32.4018C11.7634 32.9614 11.5004 33.459 11.0461 33.8946C10.5917 34.3302 10.0646 34.5901 9.46471 34.6745C8.65308 34.7886 7.90043 34.9833 7.20675 35.2586C6.51307 35.5339 5.8473 35.8619 5.20943 36.2425C5.15994 36.0878 5.14575 35.9282 5.16684 35.7636L5.23012 35.2699ZM15.1547 22.7232L20.2812 27.3355L41.4963 6.99538C41.9309 6.57873 42.1918 6.09761 42.279 5.55203C42.3663 5.00644 42.2235 4.56592 41.8506 4.23048L39.334 1.96624C38.9611 1.63079 38.4924 1.50277 37.9278 1.58216C37.3632 1.66155 36.8438 1.92851 36.3698 2.38303L15.1547 22.7232Z" fill="#F6F6F6"/>
<path d="M4.25202 56.7921C3.96815 59.007 4.2911 61.1125 5.22085 63.1085C6.15061 65.1044 7.51814 66.628 9.32343 67.6792C9.48744 66.3994 10.2171 65.016 11.5124 63.5288C12.8077 62.0417 14.5255 61.1476 16.6658 60.8467C19.4097 60.4609 21.8524 59.2715 23.9939 57.2787C26.1354 55.2859 27.3639 53.059 27.6793 50.598C27.9947 48.1369 27.3024 46.1801 25.6025 44.7274C23.9025 43.2747 21.6806 42.7413 18.9367 43.1271C15.3147 43.6364 12.0659 45.2291 9.19014 47.9052C6.31439 50.5812 4.66836 53.5435 4.25202 56.7921ZM10.8374 55.8661C11.0455 54.2418 11.8686 52.7607 13.3064 51.4227C14.7443 50.0846 16.3687 49.2883 18.1797 49.0337C19.1126 48.9025 19.8584 49.0755 20.4169 49.5528C20.9755 50.0301 21.2011 50.6872 21.0939 51.5239C20.9867 52.3607 20.5812 53.1065 19.8776 53.7612C19.1739 54.416 18.3557 54.809 17.4227 54.9402C16.1605 55.1176 14.9908 55.415 13.9134 55.8324C12.836 56.2497 11.8025 56.7454 10.8128 57.3196C10.7346 57.0889 10.7112 56.8506 10.7428 56.6045L10.8374 55.8661ZM26.1844 37.033L34.1984 43.8812L67.0554 13.3059C67.7284 12.6796 68.1307 11.9584 68.2622 11.1424C68.3938 10.3264 68.1681 9.6694 67.5853 9.17134L63.6511 5.80948C63.0683 5.31142 62.3378 5.12412 61.4598 5.24759C60.5817 5.37105 59.7756 5.7744 59.0414 6.45765L26.1844 37.033Z" fill="#F6F6F6"/>
<path d="M26.5148 63.8397C26.3181 65.3745 26.5474 66.8326 27.2029 68.214C27.8583 69.5955 28.8206 70.6491 30.0899 71.3749C30.2035 70.4882 30.7143 69.5288 31.6223 68.4969C32.5303 67.465 33.7357 66.8433 35.2385 66.632C37.1652 66.3611 38.8794 65.534 40.3811 64.1506C41.8828 62.7673 42.7429 61.223 42.9615 59.5177C43.18 57.8124 42.6914 56.4577 41.4957 55.4536C40.3 54.4496 38.7388 54.083 36.8121 54.3539C34.2688 54.7115 31.9889 55.8191 29.9723 57.6768C27.9558 59.5344 26.8033 61.5887 26.5148 63.8397ZM31.1389 63.1895C31.2831 62.064 31.8594 61.0369 32.8677 60.108C33.876 59.1792 35.0159 58.6254 36.2875 58.4466C36.9426 58.3545 37.4666 58.4734 37.8595 58.8033C38.2524 59.1332 38.4116 59.5881 38.3373 60.1679C38.263 60.7477 37.9792 61.2648 37.4858 61.7194C36.9924 62.1739 36.4181 62.4472 35.763 62.5393C34.8767 62.6639 34.0555 62.8715 33.2993 63.162C32.5431 63.4526 31.8178 63.7974 31.1234 64.1964C31.0682 64.0367 31.0515 63.8716 31.0733 63.7011L31.1389 63.1895ZM41.8951 50.1226L47.5321 54.856L70.5723 33.6315C71.0442 33.1968 71.3259 32.6966 71.4173 32.1312C71.5087 31.5657 71.3494 31.1109 70.9394 30.7666L68.1722 28.4429C67.7623 28.0987 67.249 27.9699 66.6324 28.0566C66.0159 28.1433 65.4502 28.4238 64.9353 28.8981L41.8951 50.1226Z" fill="#F6F6F6"/>
</mask>
<g mask="url(#mask2_6493_2958)">
<mask id="mask3_6493_2958" style="mask-type:alpha" maskUnits="userSpaceOnUse" x="0" y="-1" width="73" height="73">
<rect width="72" height="72" transform="matrix(0 -1 -1 0 72.0381 71.9504)" fill="#D9D9D9"/>
</mask>
<g mask="url(#mask3_6493_2958)">
<path d="M72.0381 71.9504V-0.0495634H0.0380831V71.9504H72.0381Z" fill="#F6F6F6"/>
<path d="M72.0381 -0.0495605L0.0380859 71.9504H72.0381V-0.0495605Z" fill="#2A4159"/>
<path d="M0.0380859 71.9504L72.0381 -0.0495605L0.0380859 -0.0495605L0.0380859 71.9504Z" fill="#FF4B4B"/>
</g>
</g>
<path d="M60.5805 53.1091C60.5805 51.7548 60.3984 50.5456 60.0341 49.4815C59.6979 48.3851 59.0675 47.4016 58.1429 46.531C57.2463 45.6281 55.9715 44.7574 54.3185 43.919C52.6934 43.0484 50.592 42.1455 48.0144 41.2104C45.1565 40.1785 42.4948 39.0176 40.0292 37.7278C37.5636 36.438 35.3922 34.9385 33.515 33.2295C31.6658 31.5205 30.2229 29.5535 29.1862 27.3285C28.1495 25.0713 27.6312 22.4593 27.6312 19.4927C27.6312 16.5906 28.1636 13.9464 29.2282 11.5602C30.3209 9.17398 31.8619 7.12636 33.8512 5.41733C35.8405 3.67604 38.18 2.33783 40.8698 1.4027C43.5875 0.467567 46.5855 0 49.8636 0C54.4025 0 58.325 0.951257 61.6312 2.85377C64.9653 4.75628 67.543 7.33596 69.3642 10.5928C71.1853 13.8497 72.0959 17.5096 72.0959 21.5726H60.5805C60.5805 19.3798 60.1742 17.4451 59.3617 15.7683C58.5772 14.0915 57.3724 12.7694 55.7474 11.802C54.1503 10.8347 52.133 10.351 49.6955 10.351C47.3419 10.351 45.3807 10.754 43.8117 11.5602C42.2707 12.3663 41.1079 13.4627 40.3234 14.8493C39.5669 16.2359 39.1887 17.7837 39.1887 19.4927C39.1887 20.7825 39.4549 21.9434 39.9872 22.9753C40.5195 23.9749 41.3181 24.9262 42.3827 25.829C43.4474 26.6997 44.7643 27.522 46.3333 28.2959C47.9303 29.0375 49.7795 29.7792 51.8809 30.5208C55.243 31.6817 58.185 32.9715 60.7066 34.3903C63.2562 35.8092 65.3716 37.4215 67.0527 39.2272C68.7618 41.033 70.0366 43.0645 70.8771 45.3217C71.7457 47.579 72.18 50.1425 72.18 53.0124C72.18 56.0435 71.6617 58.7522 70.625 61.1384C69.5883 63.5246 68.1034 65.5561 66.1701 67.2329C64.2369 68.9097 61.9114 70.1834 59.1936 71.054C56.5039 71.9247 53.4919 72.36 50.1578 72.36C47.1878 72.36 44.2459 71.9086 41.3321 71.0057C38.4462 70.0705 35.8265 68.684 33.473 66.8459C31.1195 64.9757 29.2423 62.6217 27.8413 59.7841C26.4404 56.9142 25.74 53.5606 25.74 49.7233H37.3395C37.3395 51.9483 37.6477 53.8508 38.2641 55.4309C38.9085 56.9787 39.8051 58.2524 40.9538 59.252C42.1306 60.2194 43.5035 60.9288 45.0725 61.3802C46.6415 61.8317 48.3366 62.0574 50.1578 62.0574C52.5113 62.0574 54.4445 61.6866 55.9575 60.9449C57.4985 60.171 58.6472 59.1069 59.4037 57.7526C60.1882 56.3982 60.5805 54.8504 60.5805 53.1091Z" fill="#F6F6F6"/>
</g>
</svg>
