<svg width="77" height="32" viewBox="0 0 77 32" fill="none" xmlns="http://www.w3.org/2000/svg">
<mask id="mask0_6493_2927" style="mask-type:alpha" maskUnits="userSpaceOnUse" x="0" y="0" width="32" height="32">
<rect width="32" height="32" rx="4" transform="matrix(0 -1 -1 0 32 32)" fill="#D9D9D9"/>
</mask>
<g mask="url(#mask0_6493_2927)">
<mask id="mask1_6493_2927" style="mask-type:alpha" maskUnits="userSpaceOnUse" x="-1" y="0" width="33" height="33">
<rect width="32" height="32" rx="4" transform="matrix(0 -1 -1 0 31.978 32.058)" fill="#D9D9D9"/>
</mask>
<g mask="url(#mask1_6493_2927)">
<path d="M27.978 32.058C30.1871 32.058 31.978 30.2671 31.978 28.058V4.05798C31.978 1.84885 30.1871 0.0579841 27.978 0.0579841H3.97797C1.76883 0.0579841 -0.022033 1.84885 -0.022033 4.05798V28.058C-0.022033 30.2671 1.76883 32.058 3.97797 32.058H27.978Z" fill="#F0F2F6"/>
<path d="M25.1495 6.8864L6.80639 25.2296C4.28654 27.7494 6.0712 32.058 9.63482 32.058H27.978C30.1871 32.058 31.978 30.2671 31.978 28.058V9.71484C31.978 6.15122 27.6694 4.36654 25.1495 6.8864Z" fill="#97A6C3"/>
<path d="M6.80639 25.2296L25.1495 6.88641C27.6694 4.36655 25.8847 0.0579834 22.3211 0.0579834L3.97797 0.0579834C1.76883 0.0579834 -0.0220337 1.84884 -0.0220337 4.05798L-0.0220337 22.4011C-0.0220337 25.9647 4.28653 27.7494 6.80639 25.2296Z" fill="#97A6C3" fill-opacity="0.25"/>
</g>
<mask id="mask2_6493_2927" style="mask-type:alpha" maskUnits="userSpaceOnUse" x="0" y="0" width="32" height="32">
<path d="M0.442441 15.9402C0.358072 16.5985 0.44716 17.2252 0.709707 17.8204C0.972255 18.4156 1.36052 18.8709 1.87452 19.1865C1.92326 18.8062 2.1337 18.3959 2.50584 17.9557C2.87798 17.5155 3.36988 17.2524 3.98154 17.1664C4.76572 17.0561 5.46509 16.7064 6.07964 16.1172C6.69419 15.528 7.04834 14.8677 7.14208 14.1362C7.23582 13.4048 7.04104 12.8216 6.55773 12.3868C6.07442 11.9519 5.44067 11.7897 4.65649 11.8999C3.62137 12.0455 2.69118 12.5138 1.86593 13.3051C1.04068 14.0963 0.566182 14.9747 0.442441 15.9402ZM2.32448 15.6755C2.38635 15.1928 2.6236 14.7536 3.03623 14.358C3.44885 13.9624 3.91395 13.7282 4.43151 13.6554C4.69813 13.6179 4.91084 13.6706 5.06964 13.8135C5.22844 13.9564 5.29191 14.1521 5.26004 14.4008C5.22816 14.6495 5.11127 14.8707 4.90934 15.0643C4.70742 15.2579 4.47315 15.3734 4.20652 15.4109C3.8458 15.4616 3.51129 15.5482 3.20299 15.6705C2.89468 15.7929 2.59878 15.9386 2.31529 16.1078C2.2933 16.0391 2.28699 15.9681 2.29636 15.895L2.32448 15.6755ZM6.73539 10.0992L9.01385 12.1492L18.4428 3.10909C18.6359 2.92391 18.7519 2.71008 18.7907 2.46759C18.8294 2.22511 18.766 2.02933 18.6003 1.88024L17.4818 0.873908C17.3161 0.724822 17.1077 0.667921 16.8568 0.703206C16.6059 0.73849 16.375 0.857139 16.1643 1.05915L6.73539 10.0992Z" fill="#F6F6F6"/>
<path d="M1.88976 25.241C1.7636 26.2254 1.90713 27.1611 2.32035 28.0482C2.73358 28.9353 3.34137 29.6125 4.14372 30.0797C4.21661 29.5109 4.54091 28.896 5.11661 28.2351C5.6923 27.5741 6.45576 27.1767 7.40698 27.043C8.62649 26.8715 9.71214 26.3429 10.6639 25.4572C11.6157 24.5716 12.1617 23.5818 12.3019 22.488C12.4421 21.3942 12.1344 20.5245 11.3788 19.8789C10.6233 19.2332 9.63579 18.9962 8.41628 19.1676C6.80652 19.394 5.36259 20.1018 4.08448 21.2912C2.80637 22.4806 2.0748 23.7971 1.88976 25.241ZM4.81659 24.8294C4.90911 24.1075 5.27489 23.4492 5.91395 22.8545C6.553 22.2599 7.27497 21.9059 8.07985 21.7928C8.49448 21.7345 8.82592 21.8114 9.07417 22.0235C9.32241 22.2356 9.4227 22.5277 9.37504 22.8996C9.32738 23.2714 9.14719 23.6029 8.83446 23.8939C8.52173 24.1849 8.15805 24.3596 7.74341 24.4179C7.18244 24.4968 6.66253 24.6289 6.1837 24.8144C5.70487 24.9999 5.24552 25.2202 4.80565 25.4754C4.77089 25.3729 4.76051 25.2669 4.77453 25.1576L4.81659 24.8294ZM11.6375 16.4591L15.1993 19.5028L29.8024 5.91376C30.1015 5.6354 30.2803 5.31488 30.3387 4.95222C30.3972 4.58955 30.2969 4.29753 30.0379 4.07618L28.2894 2.58201C28.0303 2.36066 27.7057 2.27741 27.3154 2.33229C26.9252 2.38716 26.5669 2.56643 26.2406 2.87009L11.6375 16.4591Z" fill="#F6F6F6"/>
<path d="M11.7843 28.3732C11.6969 29.0553 11.7988 29.7034 12.0901 30.3174C12.3814 30.9313 12.8091 31.3996 13.3732 31.7222C13.4238 31.3281 13.6508 30.9017 14.0543 30.4431C14.4579 29.9844 14.9936 29.7081 15.6615 29.6142C16.5178 29.4938 17.2797 29.1262 17.9471 28.5114C18.6146 27.8966 18.9968 27.2102 19.094 26.4523C19.1911 25.6944 18.9739 25.0923 18.4425 24.6461C17.9111 24.1998 17.2172 24.0369 16.3609 24.1573C15.2305 24.3162 14.2173 24.8085 13.321 25.6341C12.4248 26.4597 11.9125 27.3728 11.7843 28.3732ZM13.8395 28.0842C13.9036 27.584 14.1597 27.1275 14.6078 26.7147C15.056 26.3019 15.5626 26.0557 16.1278 25.9763C16.4189 25.9353 16.6518 25.9882 16.8264 26.1348C17.001 26.2814 17.0718 26.4836 17.0388 26.7413C17.0058 26.999 16.8796 27.2288 16.6603 27.4308C16.441 27.6328 16.1858 27.7543 15.8946 27.7953C15.5007 27.8506 15.1357 27.9429 14.7997 28.072C14.4636 28.2011 14.1412 28.3544 13.8326 28.5317C13.808 28.4608 13.8006 28.3874 13.8103 28.3116L13.8395 28.0842ZM18.62 22.2767L21.1253 24.3805L31.3654 14.9473C31.5752 14.7541 31.7004 14.5318 31.741 14.2805C31.7816 14.0292 31.7108 13.8271 31.5286 13.6741L30.2987 12.6413C30.1165 12.4883 29.8884 12.4311 29.6144 12.4696C29.3404 12.5081 29.0889 12.6328 28.8601 12.8436L18.62 22.2767Z" fill="#F6F6F6"/>
</mask>
<g mask="url(#mask2_6493_2927)">
<mask id="mask3_6493_2927" style="mask-type:alpha" maskUnits="userSpaceOnUse" x="0" y="-1" width="33" height="33">
<rect width="32" height="32" transform="matrix(0 -1 -1 0 32.0169 31.978)" fill="#D9D9D9"/>
</mask>
<g mask="url(#mask3_6493_2927)">
<path d="M32.0169 31.978V-0.0219719L0.0169075 -0.0219719L0.0169075 31.978L32.0169 31.978Z" fill="#F0F2F6"/>
<path d="M32.0169 -0.0219727L0.0169067 31.978L32.0169 31.978V-0.0219727Z" fill="#97A6C3" fill-opacity="0.25"/>
<path d="M0.0169067 31.978L32.0169 -0.0219727L0.0169067 -0.0219727L0.0169067 31.978Z" fill="#97A6C3" fill-opacity="0.5"/>
</g>
</g>
<path d="M26.9247 23.6041C26.9247 23.0021 26.8437 22.4647 26.6818 21.9918C26.5324 21.5045 26.2522 21.0674 25.8413 20.6804C25.4428 20.2791 24.8762 19.8922 24.1415 19.5196C23.4193 19.1326 22.4854 18.7313 21.3397 18.3157C20.0696 17.8571 18.8866 17.3412 17.7908 16.7679C16.695 16.1947 15.7299 15.5282 14.8956 14.7687C14.0737 14.0091 13.4324 13.1349 12.9717 12.146C12.5109 11.1428 12.2805 9.98193 12.2805 8.66342C12.2805 7.37358 12.5171 6.1984 12.9903 5.13786C13.476 4.07733 14.1609 3.16727 15.045 2.4077C15.9291 1.6338 16.9689 1.03904 18.1643 0.623422C19.3722 0.207807 20.7047 0 22.1616 0C24.1789 0 25.9222 0.422781 27.3916 1.26834C28.8735 2.1139 30.0191 3.26043 30.8285 4.70791C31.6379 6.1554 32.0426 7.78203 32.0426 9.58781H26.9247C26.9247 8.61326 26.7441 7.75337 26.383 7.00813C26.0343 6.26289 25.4989 5.67529 24.7766 5.24535C24.0668 4.8154 23.1702 4.60043 22.0869 4.60043C21.0409 4.60043 20.1692 4.77957 19.4719 5.13786C18.787 5.49615 18.2702 5.98342 17.9215 6.59968C17.5853 7.21594 17.4172 7.90385 17.4172 8.66342C17.4172 9.23668 17.5355 9.75262 17.7721 10.2112C18.0087 10.6555 18.3636 11.0783 18.8368 11.4796C19.31 11.8665 19.8952 12.232 20.5926 12.5759C21.3024 12.9056 22.1242 13.2352 23.0582 13.5648C24.5525 14.0807 25.86 14.654 26.9807 15.2846C28.1139 15.9152 29.054 16.6318 29.8012 17.4343C30.5608 18.2369 31.1274 19.1398 31.501 20.143C31.887 21.1462 32.08 22.2856 32.08 23.5611C32.08 24.9082 31.8496 26.1121 31.3889 27.1726C30.9281 28.2332 30.2682 29.136 29.4089 29.8813C28.5497 30.6265 27.5162 31.1926 26.3083 31.5796C25.1128 31.9665 23.7742 32.16 22.2923 32.16C20.9724 32.16 19.6649 31.9594 18.3698 31.5581C17.0872 31.1425 15.9229 30.5262 14.8769 29.7093C13.8309 28.8781 12.9966 27.8319 12.3739 26.5707C11.7513 25.2952 11.44 23.8047 11.44 22.0993H16.5953C16.5953 23.0881 16.7323 23.9337 17.0063 24.6359C17.2927 25.3239 17.6912 25.8899 18.2017 26.3342C18.7247 26.7642 19.3349 27.0795 20.0322 27.2801C20.7296 27.4807 21.4829 27.5811 22.2923 27.5811C23.3384 27.5811 24.1976 27.4163 24.87 27.0866C25.5549 26.7427 26.0654 26.2697 26.4017 25.6678C26.7503 25.0659 26.9247 24.378 26.9247 23.6041Z" fill="#F0F2F6"/>
</g>
<path d="M38.5549 3.76426V5.32285H33.469V3.76426H38.5549ZM34.8307 1.58223H37.0045V10.0807C37.0045 10.3432 37.0401 10.5455 37.1112 10.6877C37.1823 10.8299 37.2889 10.9256 37.4311 10.9748C37.5733 11.024 37.7428 11.0486 37.9397 11.0486C38.0819 11.0486 38.2131 11.0404 38.3334 11.024C38.4538 11.0076 38.5549 10.9912 38.637 10.9748L38.6452 12.599C38.4647 12.6592 38.2596 12.7084 38.0299 12.7467C37.8057 12.785 37.5514 12.8041 37.267 12.8041C36.7803 12.8041 36.3538 12.7221 35.9874 12.558C35.6209 12.3885 35.3366 12.1178 35.1342 11.7459C34.9319 11.3686 34.8307 10.8709 34.8307 10.2529V1.58223Z" fill="#97A6C3"/>
<path d="M46.5038 12.64V14.3135H39.0307V12.64H46.5038Z" fill="#97A6C3"/>
<path d="M50.0967 11.6557L52.4756 3.76426H54.7971L51.237 13.9854C51.1549 14.2041 51.0483 14.442 50.917 14.699C50.7913 14.9561 50.6217 15.1994 50.4084 15.4291C50.1952 15.6643 49.9272 15.8557 49.6045 16.0033C49.2874 16.151 48.9018 16.2248 48.4479 16.2248C48.251 16.2248 48.076 16.2111 47.9229 16.1838C47.7698 16.1564 47.6084 16.1209 47.4389 16.0771V14.4529C47.4936 14.4584 47.5565 14.4611 47.6276 14.4611C47.7041 14.4666 47.7698 14.4693 47.8245 14.4693C48.1416 14.4693 48.4041 14.4311 48.612 14.3545C48.8198 14.2834 48.9866 14.1658 49.1124 14.0018C49.2436 13.8432 49.353 13.6354 49.4405 13.3783L50.0967 11.6557ZM48.9237 3.76426L50.9334 10.3021L51.2862 12.5908L49.7932 12.8615L46.5858 3.76426H48.9237Z" fill="#97A6C3"/>
<path d="M58.144 0.0400391V12.64H55.9702V0.0400391H58.144Z" fill="#97A6C3"/>
<path d="M64.1979 12.8041C63.5252 12.8041 62.9209 12.6947 62.385 12.476C61.8491 12.2572 61.3924 11.9537 61.0151 11.5654C60.6432 11.1717 60.3561 10.715 60.1538 10.1955C59.9569 9.67051 59.8584 9.10723 59.8584 8.50566V8.17754C59.8584 7.49395 59.9569 6.87324 60.1538 6.31543C60.3506 5.75215 60.6295 5.26816 60.9905 4.86348C61.3514 4.45879 61.7834 4.14707 62.2866 3.92832C62.7897 3.70957 63.3448 3.6002 63.9518 3.6002C64.5807 3.6002 65.1358 3.70684 65.617 3.92012C66.0983 4.12793 66.5002 4.42324 66.8229 4.80605C67.1456 5.18887 67.3889 5.64824 67.553 6.18418C67.717 6.71465 67.7991 7.30254 67.7991 7.94785V8.8584H60.8428V7.36543H65.6663V7.20137C65.6553 6.85684 65.5897 6.54238 65.4694 6.25801C65.3491 5.96816 65.1631 5.73848 64.9116 5.56895C64.66 5.39395 64.3346 5.30645 63.9354 5.30645C63.6127 5.30645 63.3311 5.37754 63.0905 5.51973C62.8553 5.65645 62.6584 5.85332 62.4999 6.11035C62.3467 6.36191 62.2319 6.6627 62.1553 7.0127C62.0788 7.3627 62.0405 7.75098 62.0405 8.17754V8.50566C62.0405 8.87754 62.0897 9.22207 62.1881 9.53926C62.292 9.85645 62.4424 10.1326 62.6393 10.3678C62.8416 10.5975 63.0823 10.7779 63.3612 10.9092C63.6456 11.035 63.9682 11.0979 64.3291 11.0979C64.7831 11.0979 65.1932 11.0104 65.5596 10.8354C65.9315 10.6549 66.2541 10.3896 66.5276 10.0396L67.6186 11.1717C67.4327 11.4451 67.1811 11.7076 66.8639 11.9592C66.5522 12.2107 66.1748 12.4158 65.7319 12.5744C65.2889 12.7275 64.7776 12.8041 64.1979 12.8041Z" fill="#97A6C3"/>
<path d="M74.5748 10.7533V0.0400391H76.7569V12.64H74.7881L74.5748 10.7533ZM68.8737 8.30879V8.13652C68.8737 7.4584 68.9502 6.84316 69.1034 6.29082C69.262 5.73301 69.4916 5.25449 69.7924 4.85527C70.0932 4.45605 70.4569 4.14707 70.8834 3.92832C71.3155 3.70957 71.8049 3.6002 72.3518 3.6002C72.8823 3.6002 73.3444 3.70684 73.7381 3.92012C74.1373 4.1334 74.4764 4.43691 74.7553 4.83066C75.0397 5.22441 75.2666 5.69199 75.4362 6.2334C75.6057 6.76934 75.7288 7.35996 75.8053 8.00527V8.47285C75.7288 9.10176 75.6057 9.67871 75.4362 10.2037C75.2666 10.7287 75.0397 11.1881 74.7553 11.5818C74.4764 11.9701 74.1373 12.2709 73.7381 12.4842C73.3389 12.6975 72.8713 12.8041 72.3354 12.8041C71.794 12.8041 71.3073 12.692 70.8752 12.4678C70.4487 12.2436 70.085 11.9291 69.7842 11.5244C69.4889 11.1197 69.262 10.6439 69.1034 10.0971C68.9502 9.5502 68.8737 8.9541 68.8737 8.30879ZM71.0475 8.13652V8.30879C71.0475 8.6916 71.0803 9.0498 71.1459 9.3834C71.2116 9.71699 71.3182 10.0123 71.4659 10.2693C71.6135 10.5209 71.8022 10.7178 72.0319 10.86C72.267 11.0021 72.5514 11.0732 72.885 11.0732C73.3116 11.0732 73.6616 10.9803 73.935 10.7943C74.2139 10.6029 74.4299 10.3432 74.5831 10.015C74.7362 9.68145 74.8346 9.30684 74.8784 8.89121V7.60332C74.8565 7.2752 74.7991 6.97168 74.7061 6.69277C74.6186 6.41387 74.4928 6.17324 74.3288 5.9709C74.1702 5.76855 73.9733 5.60996 73.7381 5.49512C73.503 5.38027 73.2241 5.32285 72.9014 5.32285C72.5678 5.32285 72.2834 5.39668 72.0483 5.54434C71.8131 5.68652 71.6217 5.88613 71.4741 6.14316C71.3264 6.4002 71.217 6.69824 71.1459 7.0373C71.0803 7.37637 71.0475 7.74277 71.0475 8.13652Z" fill="#97A6C3"/>
<path d="M39.3075 21.6162V23.3975H33.495V21.6162H39.3075ZM35.0512 19.1225H37.5356V28.835C37.5356 29.135 37.5762 29.3662 37.6575 29.5287C37.7387 29.6912 37.8606 29.8006 38.0231 29.8569C38.1856 29.9131 38.3794 29.9412 38.6044 29.9412C38.7669 29.9412 38.9169 29.9319 39.0544 29.9131C39.1919 29.8944 39.3075 29.8756 39.4012 29.8569L39.4106 31.7131C39.2044 31.7819 38.97 31.8381 38.7075 31.8819C38.4512 31.9256 38.1606 31.9475 37.8356 31.9475C37.2794 31.9475 36.7919 31.8537 36.3731 31.6662C35.9544 31.4725 35.6294 31.1631 35.3981 30.7381C35.1669 30.3069 35.0512 29.7381 35.0512 29.0319V19.1225Z" fill="#97A6C3"/>
<path d="M46.995 29.3506V21.6162H49.4887V31.76H47.145L46.995 29.3506ZM47.3137 27.2506L48.0825 27.2319C48.0825 27.9131 48.0075 28.5412 47.8575 29.1162C47.7075 29.6912 47.4731 30.1912 47.1544 30.6162C46.8419 31.035 46.445 31.3631 45.9637 31.6006C45.4825 31.8319 44.9137 31.9475 44.2575 31.9475C43.7575 31.9475 43.3012 31.8787 42.8887 31.7412C42.4762 31.5975 42.12 31.3756 41.82 31.0756C41.5262 30.7694 41.2981 30.3787 41.1356 29.9037C40.9731 29.4225 40.8919 28.8444 40.8919 28.1694V21.6162H43.3669V28.1881C43.3669 28.5256 43.4044 28.8069 43.4794 29.0319C43.5606 29.2569 43.67 29.4412 43.8075 29.585C43.9512 29.7225 44.1169 29.8225 44.3044 29.885C44.4981 29.9412 44.7044 29.9694 44.9231 29.9694C45.5231 29.9694 45.995 29.8506 46.3387 29.6131C46.6887 29.3694 46.9387 29.0444 47.0887 28.6381C47.2387 28.2256 47.3137 27.7631 47.3137 27.2506Z" fill="#97A6C3"/>
<path d="M57.7669 29.6037V17.36H60.2606V31.76H58.0106L57.7669 29.6037ZM51.2512 26.81V26.6131C51.2512 25.8381 51.3387 25.135 51.5137 24.5037C51.695 23.8662 51.9575 23.3194 52.3012 22.8631C52.645 22.4069 53.0606 22.0537 53.5481 21.8037C54.0419 21.5537 54.6012 21.4287 55.2262 21.4287C55.8325 21.4287 56.3606 21.5506 56.8106 21.7944C57.2669 22.0381 57.6544 22.385 57.9731 22.835C58.2981 23.285 58.5575 23.8194 58.7512 24.4381C58.945 25.0506 59.0856 25.7256 59.1731 26.4631V26.9975C59.0856 27.7162 58.945 28.3756 58.7512 28.9756C58.5575 29.5756 58.2981 30.1006 57.9731 30.5506C57.6544 30.9944 57.2669 31.3381 56.8106 31.5819C56.3544 31.8256 55.82 31.9475 55.2075 31.9475C54.5887 31.9475 54.0325 31.8194 53.5387 31.5631C53.0512 31.3069 52.6356 30.9475 52.2919 30.485C51.9544 30.0225 51.695 29.4787 51.5137 28.8537C51.3387 28.2287 51.2512 27.5475 51.2512 26.81ZM53.7356 26.6131V26.81C53.7356 27.2475 53.7731 27.6569 53.8481 28.0381C53.9231 28.4194 54.045 28.7569 54.2137 29.0506C54.3825 29.3381 54.5981 29.5631 54.8606 29.7256C55.1294 29.8881 55.4544 29.9694 55.8356 29.9694C56.3231 29.9694 56.7231 29.8631 57.0356 29.6506C57.3544 29.4319 57.6012 29.135 57.7762 28.76C57.9512 28.3787 58.0637 27.9506 58.1137 27.4756V26.0037C58.0887 25.6287 58.0231 25.2819 57.9169 24.9631C57.8169 24.6444 57.6731 24.3694 57.4856 24.1381C57.3044 23.9069 57.0794 23.7256 56.8106 23.5944C56.5419 23.4631 56.2231 23.3975 55.8544 23.3975C55.4731 23.3975 55.1481 23.4819 54.8794 23.6506C54.6106 23.8131 54.3919 24.0412 54.2231 24.335C54.0544 24.6287 53.9294 24.9694 53.8481 25.3569C53.7731 25.7444 53.7356 26.1631 53.7356 26.6131Z" fill="#97A6C3"/>
<path d="M65.1262 21.6162V31.76H62.6419V21.6162H65.1262ZM62.4731 18.9631C62.4731 18.5944 62.5981 18.2881 62.8481 18.0444C63.1044 17.8006 63.4481 17.6787 63.8794 17.6787C64.3106 17.6787 64.6512 17.8006 64.9012 18.0444C65.1575 18.2881 65.2856 18.5944 65.2856 18.9631C65.2856 19.3256 65.1575 19.6287 64.9012 19.8725C64.6512 20.1162 64.3106 20.2381 63.8794 20.2381C63.4481 20.2381 63.1044 20.1162 62.8481 19.8725C62.5981 19.6287 62.4731 19.3256 62.4731 18.9631Z" fill="#97A6C3"/>
<path d="M67.0481 26.7912V26.5944C67.0481 25.8506 67.1544 25.1662 67.3669 24.5412C67.5794 23.91 67.8887 23.3631 68.295 22.9006C68.7012 22.4381 69.1981 22.0787 69.7856 21.8225C70.3731 21.56 71.0419 21.4287 71.7919 21.4287C72.5544 21.4287 73.2294 21.56 73.8169 21.8225C74.4106 22.0787 74.9106 22.4381 75.3169 22.9006C75.7231 23.3631 76.0325 23.91 76.245 24.5412C76.4575 25.1662 76.5637 25.8506 76.5637 26.5944V26.7912C76.5637 27.5287 76.4575 28.2131 76.245 28.8444C76.0325 29.4694 75.7231 30.0162 75.3169 30.485C74.9106 30.9475 74.4137 31.3069 73.8262 31.5631C73.2387 31.8194 72.5669 31.9475 71.8106 31.9475C71.0606 31.9475 70.3887 31.8194 69.795 31.5631C69.2012 31.3069 68.7012 30.9475 68.295 30.485C67.8887 30.0162 67.5794 29.4694 67.3669 28.8444C67.1544 28.2131 67.0481 27.5287 67.0481 26.7912ZM69.5231 26.5944V26.7912C69.5231 27.235 69.5669 27.6506 69.6544 28.0381C69.7419 28.4256 69.8762 28.7662 70.0575 29.06C70.2387 29.3537 70.4731 29.585 70.7606 29.7537C71.0544 29.9162 71.4044 29.9975 71.8106 29.9975C72.2106 29.9975 72.5544 29.9162 72.8419 29.7537C73.1294 29.585 73.3637 29.3537 73.545 29.06C73.7325 28.7662 73.87 28.4256 73.9575 28.0381C74.045 27.6506 74.0887 27.235 74.0887 26.7912V26.5944C74.0887 26.1569 74.045 25.7475 73.9575 25.3662C73.87 24.9787 73.7325 24.6381 73.545 24.3444C73.3637 24.0444 73.1262 23.81 72.8325 23.6412C72.545 23.4662 72.1981 23.3787 71.7919 23.3787C71.3919 23.3787 71.0481 23.4662 70.7606 23.6412C70.4731 23.81 70.2387 24.0444 70.0575 24.3444C69.8762 24.6381 69.7419 24.9787 69.6544 25.3662C69.5669 25.7475 69.5231 26.1569 69.5231 26.5944Z" fill="#97A6C3"/>
</svg>
